/vscmnt/brussel_pixiu_data/_data_brussel/112/vsc11236/PredSimResults/SUBJ04opt3D/weighted-expIG/worker_02.mot
version=1
nRows=10
nColumns=50
inDegrees=yes
endheader
                time	         pelvis_tilt	         pelvis_list	     pelvis_rotation	           pelvis_tx	           pelvis_ty	           pelvis_tz	       hip_flexion_r	     hip_adduction_r	      hip_rotation_r	        knee_angle_r	       ankle_angle_r	         mtp_angle_r	       hip_flexion_l	     hip_adduction_l	      hip_rotation_l	        knee_angle_l	       ankle_angle_l	         mtp_angle_l	    lumbar_extension	      lumbar_bending	     lumbar_rotation	 ercspn_r/activation	 intobl_r/activation	 extobl_r/activation	    abd_r/activation	    add_r/activation	hamstrings_r/activation	bifemsh_r/activation	glut_max_r/activation	iliopsoas_r/activation	rect_fem_r/activation	  vasti_r/activation	gastroc_r/activation	 soleus_r/activation	tib_ant_r/activation	 ercspn_l/activation	 intobl_l/activation	 extobl_l/activation	    abd_l/activation	    add_l/activation	hamstrings_l/activation	bifemsh_l/activation	glut_max_l/activation	iliopsoas_l/activation	rect_fem_l/activation	  vasti_l/activation	gastroc_l/activation	 soleus_l/activation	tib_ant_l/activation	
          0.67370192	         -1.41275166	         -0.21146950	         -8.46008999	          0.58612067	          0.88506321	          0.01056458	        -12.06913164	         -0.41607524	         -7.47591219	         -7.06456864	         13.84408990	         18.08789832	         27.97670423	         -2.81772126	         -9.93826816	        -10.52379210	          3.89396748	          0.23013482	        -14.09899396	          4.08834008	          7.81162752	          0.00999999	          0.00999999	          0.00999999	          0.07821247	          0.00999999	          0.02993159	          0.25900177	          0.01899998	          0.01836317	          0.00999999	          0.00999999	          0.25308946	          0.24364230	          0.01224566	          0.04609047	          0.23427495	          0.02299813	          0.01005760	          0.24647246	          0.06768639	          0.01839625	          0.01632100	          0.18414544	          0.04002136	          0.05169932	          0.00999999	          0.00999999	          0.33478562	
          0.68717596	         -1.52332579	         -0.21232446	         -8.26111377	          0.60102558	          0.88273708	          0.01021504	        -12.72972496	         -0.51354707	         -8.12089048	         -7.54902005	         13.70727128	         19.44790299	         27.92720474	         -2.67212350	        -10.12441164	        -11.76402190	          3.70995726	          0.22854800	        -13.60904084	          3.48658933	          7.88992508	          0.02504342	          0.00999999	          0.00999999	          0.06386947	          0.00999999	          0.02444258	          0.21150472	          0.01551567	          0.01499564	          0.00999999	          0.00999999	          0.24543991	          0.24963281	          0.00999999	          0.03763817	          0.22947721	          0.01878062	          0.00999999	          0.30390487	          0.06886194	          0.01502265	          0.01332797	          0.15037592	          0.03268204	          0.04221844	          0.01499564	          0.01836317	          0.32824030	
          0.70065000	         -1.61814203	         -0.15774431	         -8.02052024	          0.61636676	          0.88053279	          0.00982158	        -13.36303161	         -0.67300333	         -8.80158648	         -8.15679372	         13.48566175	         20.87367858	         27.77157181	         -2.51810947	        -10.17807536	        -13.05160127	          3.47192800	          0.22221164	        -13.07767003	          2.79681662	          7.94397210	          0.02299245	          0.00999999	          0.00999999	          0.05215677	          0.00999999	          0.02841349	          0.17271792	          0.01267033	          0.01224566	          0.00999999	          0.00999999	          0.21530362	          0.24678408	          0.00999999	          0.03073589	          0.22356126	          0.01533654	          0.01916776	          0.24817327	          0.07223956	          0.01226773	          0.02136616	          0.12279923	          0.02668864	          0.04448193	          0.01224566	          0.01499564	          0.35170052	
          0.71412403	         -1.69847524	         -0.04474413	         -7.72869967	          0.63194960	          0.87862117	          0.00932873	        -13.90697326	         -0.90387859	         -9.52849050	         -8.97416748	         13.16119039	         22.34923593	         27.57009910	         -2.32209924	        -10.32227691	        -14.24201284	          3.07144191	          0.20860519	        -12.53193702	          2.02177484	          7.96412550	          0.02551819	          0.00999999	          0.00999999	          0.04259200	          0.00999999	          0.03131265	          0.14104404	          0.01034678	          0.00999999	          0.00999999	          0.00999999	          0.17582016	          0.23590712	          0.00999999	          0.02509939	          0.18256347	          0.01252404	          0.02762807	          0.21595274	          0.07764665	          0.01001802	          0.01744793	          0.10027969	          0.02179435	          0.11163988	          0.00999999	          0.01224566	          0.37869031	
          0.72759807	         -1.76472666	          0.11708209	         -7.39184415	          0.64765918	          0.87717736	          0.00872120	        -14.30940966	         -1.20812815	        -10.29203081	        -10.07608123	         12.68792525	         23.87650545	         27.31037809	         -2.09002999	        -10.60135437	        -15.35126424	          2.72616253	          0.18759283	        -11.99053823	          1.17876070	          7.94910457	          0.03827477	          0.00999999	          0.00999999	          0.03478126	          0.00999999	          0.02631586	          0.11517868	          0.00999999	          0.00999999	          0.00999999	          0.00999999	          0.14357738	          0.21731666	          0.00999999	          0.02384648	          0.14908407	          0.01022732	          0.04905970	          0.18978442	          0.07766147	          0.01000001	          0.01424824	          0.08188990	          0.01779759	          0.17802701	          0.00999999	          0.00999999	          0.39394428	
          0.74107211	         -1.81754467	          0.32112404	         -7.02155691	          0.66338473	          0.87638810	          0.00798685	        -14.51173744	         -1.59537547	        -11.08303373	        -11.54391758	         12.00813460	         25.46672854	         26.95036252	         -1.81522867	        -10.97862592	        -16.33396873	          2.58580622	          0.16504016	        -11.46828465	          0.28408199	          7.89974070	          0.06660135	          0.00999999	          0.00999999	          0.02840290	          0.00999999	          0.04512662	          0.09405663	          0.01485534	          0.00999999	          0.00999999	          0.00999999	          0.11724744	          0.17746404	          0.00999999	          0.02927515	          0.12174428	          0.00999999	          0.07634114	          0.16555221	          0.07677937	          0.00999999	          0.02320819	          0.06687252	          0.01453378	          0.21685323	          0.00999999	          0.00999999	          0.39471873	
          0.75454615	         -1.85766228	          0.55946881	         -6.63194402	          0.67899050	          0.87638890	          0.00712253	        -14.45177775	         -2.07674794	        -11.90304187	        -13.46541610	         11.08759025	         27.09883969	         26.48217169	         -1.48853527	        -11.37229421	        -17.16823514	          2.66388331	          0.14973283	        -10.97981104	         -0.64575109	          7.82134692	          0.08552886	          0.00999999	          0.00999999	          0.02319423	          0.00999999	          0.05888305	          0.07680805	          0.02367743	          0.00999999	          0.00999999	          0.00999999	          0.09574601	          0.14491979	          0.00999999	          0.03268368	          0.09941820	          0.00999999	          0.09480011	          0.14964483	          0.07793910	          0.01000000	          0.02234774	          0.05460910	          0.01186850	          0.23047860	          0.00999999	          0.00999999	          0.37912449	
          0.76802019	         -1.88521622	          0.81323587	         -6.23562644	          0.69438076	          0.87718199	          0.00613515	        -14.09237338	         -2.65072196	        -12.75084248	        -15.88722703	          9.88915431	         28.74599494	         25.90828665	         -1.11347200	        -11.69992203	        -17.84384177	          2.93471926	          0.15839690	        -10.53516478	         -1.58409571	          7.71956907	          0.08400755	          0.00999999	          0.00999999	          0.01894076	          0.08570170	          0.09291200	          0.06272261	          0.02013260	          0.00999999	          0.00999999	          0.01224566	          0.07818763	          0.11834367	          0.00999999	          0.03179494	          0.08118639	          0.00999999	          0.10504510	          0.15298064	          0.08041491	          0.00999999	          0.02654096	          0.04459461	          0.00999999	          0.24019517	          0.00999999	          0.00999999	          0.34588572	
          0.78149423	         -1.90066121	          1.05480518	         -5.84272756	          0.70947933	          0.87869688	          0.00504690	        -13.41292907	         -3.30535762	        -13.60664510	        -18.82643629	          8.39034660	         30.32244220	         25.21610477	         -0.70494643	        -11.90054587	        -18.31553725	          3.31493032	          0.23075573	        -10.14330770	         -2.49817701	          7.59748581	          0.06888482	          0.00999999	          0.00999999	          0.01546731	          0.15245849	          0.10727291	          0.05122022	          0.01644058	          0.00999999	          0.00999999	          0.00999999	          0.06384919	          0.09664121	          0.00999999	          0.03027603	          0.06629802	          0.00999999	          0.10965002	          0.15864715	          0.08593769	          0.00999999	          0.02455161	          0.03641662	          0.00999999	          0.23532272	          0.00999999	          0.00999999	          0.31421396	
          0.79496826	         -1.90420021	          1.24883572	         -5.45659620	          0.72422463	          0.88079890	          0.00388787	        -12.40686365	         -4.01818573	        -14.46059671	        -22.27623676	          6.59375015	         31.66522174	         24.40213249	         -0.30344019	        -11.98110356	        -18.55461593	          3.67832557	          0.37152829	         -9.81276193	         -3.34857793	          7.45140456	          0.06316480	          0.01499564	          0.00999999	          0.01263083	          0.16146138	          0.10538671	          0.04182720	          0.01342563	          0.00999999	          0.00999999	          0.00999999	          0.05214020	          0.07891866	          0.00999999	          0.02472386	          0.05413996	          0.01087113	          0.11142902	          0.15790989	          0.09012855	          0.00999999	          0.02224143	          0.02973836	          0.00999999	          0.22343431	          0.00999999	          0.00999999	          0.28488002	
